#!OML:ASF H:\Swim 2\Project 1\Capture day 1\Session 1\male.ASF
:FULLY-SPECIFIED
:DEGREES
2269
root 7.72632 8.9521 12.0036 68.9933 4.76402 178.599
lowerback 40.3787 -9.50975 -2.77069
upperback -4.46034 -7.87775 12.0758
thorax -24.7182 0.0619606 20.8834
lowerneck -2.21719 3.83829 -21.3281
upperneck 44.2804 17.5252 -2.60567
head 15.7621 8.19846 5.7769
rclavicle 6.99722e-014 -7.31528e-014
rhumerus -151.285 61.4347 -159.745
rradius 41.8174
rwrist -6.39338
rhand -16.8503 -8.03839
rfingers 7.12502
rthumb 9.37981 -37.8097
lclavicle 6.99722e-014 -7.31528e-014
lhumerus -1207.44 -161.168 1239.68
lradius 33.2963
lwrist 45.887
lhand -40.8518 38.9422
lfingers 7.12502
lthumb -13.7888 428.465
rfemur 31.2769 9.0685 30.6924
rtibia 12.4727
rfoot 3.40252 -15.3952
rtoes 21.087
lfemur 43.5367 0.575529 -26.3018
ltibia 29.4112
lfoot 31.2571 3.37255
ltoes 63.4361
2270
root 7.73952 8.94186 11.9937 68.806 4.65282 178.595
lowerback 40.5742 -9.37777 -3.017
upperback -4.36452 -7.78414 12.1557
thorax -24.6716 0.142965 21.0985
lowerneck -2.11202 3.87765 -21.2788
upperneck 44.1699 17.6503 -2.78874
head 15.71 8.28167 5.69614
rclavicle 4.13472e-014 6.52014e-014
rhumerus -149.617 61.479 -158.65
rradius 40.4789
rwrist -5.05528
rhand -17.1604 -7.49234
rfingers 7.12502
rthumb 9.08055 -37.2769
lclavicle 4.13472e-014 6.52014e-014
lhumerus -1207.68 -161.868 1238.76
lradius 33.101
lwrist 43.7516
lhand -39.1485 38.746
lfingers 7.12502
lthumb -12.1468 428.373
rfemur 31.8666 9.11403 30.7817
rtibia 12.7373
rfoot 3.3688 -14.9564
rtoes 21.0189
lfemur 42.6455 0.640753 -26.1205
ltibia 29.9581
lfoot 30.4633 4.28122
ltoes 63.194
2271
root 7.7519 8.93022 11.9805 68.5746 4.52806 178.591
lowerback 40.8208 -9.23962 -3.28766
upperback -4.25954 -7.69103 12.2363
thorax -24.6328 0.229887 21.3354
lowerneck -2.01815 3.91408 -21.2488
upperneck 44.0381 17.794 -3.0134
head 15.656 8.36707 5.60315
rclavicle 4.77083e-014 -1.74931e-014
rhumerus -147.828 61.6096 -157.343
rradius 39.2391
rwrist -3.84294
rhand -17.4105 -6.99597
rfingers 7.12502
rthumb 8.83924 -36.7908
lclavicle 4.77083e-014 -1.74931e-014
lhumerus -1207.95 -162.461 1237.72
lradius 32.829
lwrist 41.0543
lhand -37.1914 38.5196
lfingers 7.12502
lthumb -10.2593 428.249
rfemur 32.5387 9.15573 30.8794
rtibia 13.1167
rfoot 3.31949 -14.5243
rtoes 21.0497
lfemur 41.744 0.653767 -26.0332
ltibia 30.4791
lfoot 29.6276 5.13547
ltoes 62.878
2272
root 7.76336 8.91765 11.9643 68.305 4.39638 178.586
lowerback 41.0978 -9.08587 -3.56589
upperback -4.14037 -7.57816 12.3219
thorax -24.5945 0.326241 21.5751
lowerneck -1.93227 3.94298 -21.2419
upperneck 43.883 17.938 -3.25939
head 15.5955 8.44811 5.50412
rclavicle 1.39944e-013 -1.01778e-013
rhumerus -145.807 61.8299 -155.687
rradius 38.1088
rwrist -2.77342
rhand -17.6287 -6.52978
rfingers 7.12502
rthumb 8.62868 -36.3334
lclavicle 1.39944e-013 -1.01778e-013
lhumerus -1208.25 -162.997 1236.62
lradius 32.4749
lwrist 37.8675
lhand -35.0528 38.1995
lfingers 7.12502
lthumb -8.19575 428.021
rfemur 33.2939 9.17629 30.9811
rtibia 13.5899
rfoot 3.27354 -14.1188
rtoes 21.2068
lfemur 40.8342 0.612592 -26.0196
ltibia 30.9681
lfoot 28.6769 5.98964
ltoes 62.4945
2273
root 7.77391 8.90473 11.945 67.9791 4.26561 178.579
lowerback 41.4222 -8.91674 -3.84576
upperback -4.00315 -7.44086 12.4134
thorax -24.5613 0.434095 21.8136
lowerneck -1.852 3.96831 -21.2436
upperneck 43.7084 18.0835 -3.52101
head 15.529 8.52851 5.39964
rclavicle -2.22639e-014 -3.65764e-014
rhumerus -143.508 62.1277 -153.624
rradius 37.0949
rwrist -1.85459
rhand -17.8518 -6.07922
rfingers 7.12502
rthumb 8.41335 -35.8916
lclavicle -2.22639e-014 -3.65764e-014
lhumerus -1208.57 -163.508 1235.51
lradius 32.045
lwrist 34.3153
lhand -32.83 37.7378
lfingers 7.12502
lthumb -6.05006 427.631
rfemur 34.1582 9.14358 31.0773
rtibia 14.1303
rfoot 3.25085 -13.7329
rtoes 21.4476
lfemur 39.9483 0.521252 -26.0645
ltibia 31.4216
lfoot 27.3834 6.98592
ltoes 61.9656
2274
root 7.78327 8.89209 11.924 67.6288 4.13318 178.566
lowerback 41.7523 -8.73066 -4.11412
upperback -3.8533 -7.27445 12.5107
thorax -24.5261 0.550772 22.036
lowerneck -1.77182 3.98993 -21.2481
upperneck 43.5183 18.2267 -3.79242
head 15.4572 8.60891 5.29109
rclavicle -2.06736e-013 1.81292e-013
rhumerus -140.931 62.4602 -151.151
rradius 36.2022
rwrist -1.13108
rhand -18.1217 -5.66861
rfingers 7.12502
rthumb 8.15291 -35.4913
lclavicle -2.06736e-013 1.81292e-013
lhumerus -1208.93 -164.02 1234.41
lradius 31.5605
lwrist 30.577
lhand -30.646 37.1365
lfingers 7.12502
lthumb -3.94129 427.08
rfemur 35.1019 9.04776 31.1389
rtibia 14.713
rfoot 3.28039 -13.3461
rtoes 21.7486
lfemur 39.068 0.388385 -26.1519
ltibia 31.8339
lfoot 25.9409 7.99524
ltoes 61.3192
2275
root 7.79136 8.8805 11.9013 67.2377 3.984 178.552
lowerback 42.1007 -8.52394 -4.38289
upperback -3.69079 -7.0845 12.6056
thorax -24.4912 0.674301 22.2421
lowerneck -1.68996 4.0056 -21.2579
upperneck 43.3194 18.3679 -4.07455
head 15.3837 8.68936 5.17941
rclavicle -2.44903e-013 1.36764e-013
rhumerus -138.125 62.772 -148.325
rradius 35.4324
rwrist -0.655641
rhand -18.4772 -5.32211
rfingers 7.12502
rthumb 7.80974 -35.1579
lclavicle -2.44903e-013 1.36764e-013
lhumerus -1209.32 -164.553 1233.36
lradius 31.0492
lwrist 26.852
lhand -28.5978 36.4342
lfingers 7.12502
lthumb -1.96329 426.405
rfemur 36.1565 8.8879 31.1443
rtibia 15.3033
rfoot 3.22372 -12.9914
rtoes 22.4836
lfemur 38.2266 0.221907 -26.2956
ltibia 32.1964
lfoot 24.3815 9.01078
ltoes 60.5425
